<svg width="218" height="48" viewBox="0 0 218 48" fill="none" xmlns="http://www.w3.org/2000/svg">
<g clip-path="url(#clip0_2047_12269)">
<path d="M61.4173 17.7512H55.874V14.6777H70.3634V17.7512H64.7653V33.3384H61.4173V17.7512Z" fill="#6939DB"/>
<path d="M76.9506 19.8369C77.9934 19.8369 78.9264 20.0016 79.7497 20.3309C80.6278 20.6602 81.3413 21.0993 81.945 21.703C82.5488 22.3067 82.9878 23.0202 83.3171 23.8983C83.6464 24.7765 83.8111 25.7095 83.8111 26.6974V33.2835H80.6278V32.0212C80.2985 32.4054 79.8045 32.7896 79.1459 33.064C78.4873 33.3384 77.6641 33.5031 76.6761 33.5031C75.6882 33.5031 74.8101 33.3384 73.9868 33.0091C73.1636 32.6798 72.4501 32.2407 71.9012 31.637C71.2975 31.0333 70.8584 30.3198 70.5291 29.4416C70.1998 28.5635 70.0352 27.6305 70.0352 26.6426C70.0352 25.6546 70.1998 24.6667 70.5291 23.8435C70.8584 23.0202 71.2975 22.3067 71.9012 21.703C72.5049 21.0993 73.2184 20.6602 74.0966 20.3309C74.9198 20.0016 75.8529 19.8369 76.8957 19.8369H76.9506ZM80.6278 26.6974C80.6278 25.4351 80.2985 24.5021 79.6399 23.7886C78.9813 23.0751 78.1031 22.7458 76.9506 22.7458C75.798 22.7458 74.9199 23.0751 74.2612 23.7886C73.6026 24.5021 73.2733 25.4351 73.2733 26.6974C73.2733 27.9598 73.6026 28.8928 74.2612 29.6063C74.9199 30.3198 75.8529 30.6491 76.9506 30.6491C78.0482 30.6491 78.9813 30.3198 79.6399 29.6063C80.2985 28.8928 80.6278 27.9598 80.6278 26.6974Z" fill="#6939DB"/>
<path d="M86.7744 14.6777H89.9577V33.3384H86.7744V14.6777Z" fill="#6939DB"/>
<path d="M99.3965 30.6489C100.769 30.6489 101.756 30.1549 102.415 29.2219H105.928C105.489 30.594 104.72 31.6368 103.568 32.4052C102.415 33.1736 101.043 33.5578 99.4513 33.5578C97.8597 33.5578 97.4755 33.3931 96.6523 33.0638C95.7741 32.7345 95.0606 32.2954 94.4569 31.6917C93.8532 31.088 93.4141 30.3745 93.0848 29.4963C92.7555 28.6182 92.5908 27.6852 92.5908 26.6972C92.5908 25.7093 92.7555 24.7214 93.0848 23.8981C93.4141 23.0749 93.8532 22.3614 94.4569 21.7577C95.0606 21.1539 95.7741 20.7149 96.6523 20.3856C97.5304 20.0563 98.4634 19.8916 99.4513 19.8916C100.439 19.8916 101.427 20.0563 102.25 20.3856C103.074 20.7149 103.842 21.1539 104.446 21.7577C105.05 22.3614 105.489 23.0749 105.818 23.8981C106.147 24.7214 106.312 25.6544 106.312 26.6972C106.312 27.74 106.312 27.0814 106.312 27.2461C106.312 27.4107 106.312 27.5754 106.312 27.74H95.8839C96.0485 28.6731 96.4876 29.3866 97.0913 29.8805C97.695 30.3745 98.5183 30.6489 99.4513 30.6489H99.3965ZM102.744 24.7763C102.47 24.1177 102.031 23.6237 101.427 23.2395C100.823 22.9102 100.165 22.6907 99.3416 22.6907C98.5183 22.6907 97.8597 22.8553 97.3109 23.2395C96.762 23.5688 96.3229 24.1177 96.0485 24.7763H102.744Z" fill="#6939DB"/>
<path d="M114.984 19.7817C116.081 19.7817 117.014 19.9464 117.783 20.3306C118.551 20.7148 119.21 21.1538 119.704 21.7027C120.198 22.2515 120.582 22.8553 120.801 23.5139C121.021 24.1725 121.131 24.7762 121.131 25.3799V33.3381H117.947V25.4897C117.947 24.9957 117.892 24.6115 117.728 24.2822C117.563 23.9529 117.344 23.6785 117.069 23.4041C116.795 23.1846 116.465 23.0199 116.136 22.9101C115.807 22.8004 115.423 22.7455 115.038 22.7455C114.654 22.7455 114.27 22.7455 113.941 22.9101C113.611 23.0199 113.282 23.1846 113.008 23.4041C112.733 23.6236 112.514 23.8981 112.349 24.2822C112.184 24.6115 112.13 25.0506 112.13 25.4897V33.3381H108.946V25.3799C108.946 24.7762 109.056 24.1725 109.276 23.5139C109.495 22.8553 109.879 22.2515 110.373 21.7027C110.867 21.1538 111.526 20.6599 112.294 20.3306C113.063 19.9464 113.996 19.7817 115.093 19.7817H114.984Z" fill="#6939DB"/>
<path d="M130.571 33.503C128.376 33.503 126.729 32.9542 125.576 31.9114C124.424 30.8137 123.875 29.2769 123.875 27.1913V14.6777H127.058V20.0015H130.077V22.9104H127.058V27.1364C127.058 28.3439 127.333 29.222 127.882 29.7709C128.43 30.3197 129.309 30.5393 130.571 30.5393V33.4481V33.503Z" fill="#6939DB"/>
<path d="M141.165 14.6777H153.843V17.7512H144.513V21.9773H152.197V25.0508H144.513V33.3384H141.165V14.6777Z" fill="#6939DB"/>
<path d="M161.964 33.5579C160.867 33.5579 159.934 33.3932 159.165 33.009C158.397 32.6248 157.738 32.1858 157.244 31.6369C156.75 31.0881 156.366 30.4843 156.147 29.8257C155.927 29.1671 155.817 28.5634 155.817 27.9597V20.0015H159.001V27.8499C159.001 28.289 159.056 28.7281 159.22 29.0574C159.385 29.3867 159.604 29.6611 159.879 29.9355C160.153 30.155 160.483 30.3197 160.812 30.4295C161.141 30.5392 161.525 30.5941 161.91 30.5941C162.294 30.5941 162.678 30.5392 163.007 30.4295C163.337 30.3197 163.666 30.155 163.94 29.9355C164.215 29.716 164.434 29.4415 164.599 29.0574C164.764 28.7281 164.818 28.289 164.818 27.8499V20.0015H168.002V27.9597C168.002 28.5634 167.892 29.1671 167.672 29.8257C167.453 30.4843 167.069 31.0881 166.575 31.6369C166.081 32.1858 165.422 32.6797 164.654 33.009C163.885 33.3932 162.952 33.5579 161.855 33.5579H161.964Z" fill="#6939DB"/>
<path d="M173.984 23.569C173.984 23.8983 174.149 24.1179 174.533 24.3374C174.863 24.5021 175.357 24.6667 175.905 24.8314C176.454 24.996 177.003 25.1607 177.662 25.3253C178.265 25.49 178.869 25.7095 179.418 26.0388C179.967 26.3681 180.406 26.7523 180.79 27.3012C181.119 27.7951 181.339 28.5086 181.339 29.3319C181.339 30.1551 181.229 30.5942 180.955 31.1431C180.68 31.6919 180.351 32.131 179.857 32.4603C179.418 32.7896 178.869 33.064 178.211 33.2835C177.607 33.4482 176.893 33.558 176.125 33.558C175.357 33.558 174.753 33.5031 174.204 33.3384C173.6 33.1738 173.106 33.0091 172.667 32.8445C172.228 32.6249 171.844 32.4054 171.515 32.1859C171.185 31.9663 170.911 31.7468 170.691 31.5821L172.393 29.0575C172.942 29.6063 173.6 29.9905 174.259 30.2649C174.917 30.5393 175.576 30.6491 176.235 30.6491C176.893 30.6491 177.223 30.5393 177.607 30.3747C177.991 30.21 178.156 29.8807 178.156 29.4965C178.156 29.1123 177.991 28.783 177.607 28.6184C177.278 28.3988 176.784 28.2342 176.235 28.0695C175.686 27.9049 175.137 27.7402 174.478 27.5756C173.875 27.4109 173.271 27.1914 172.722 26.8621C172.173 26.5877 171.734 26.1486 171.35 25.6546C171.021 25.1607 170.801 24.5021 170.801 23.6788C170.801 22.4714 171.24 21.4834 172.118 20.8248C172.997 20.1662 174.149 19.8369 175.686 19.8369C177.223 19.8369 176.948 19.8918 177.497 20.0016C178.046 20.1113 178.54 20.276 178.979 20.4406C179.418 20.6053 179.857 20.8248 180.241 21.0992C180.625 21.3737 180.955 21.5932 181.229 21.8127L179.528 24.2825C178.814 23.6788 178.156 23.2946 177.442 23.0751C176.784 22.8555 176.18 22.7458 175.631 22.7458C175.082 22.7458 174.698 22.8007 174.424 22.9653C174.149 23.13 173.984 23.3495 173.984 23.6239V23.569Z" fill="#6939DB"/>
<path d="M183.646 16.1596C183.646 15.6657 183.81 15.2815 184.139 14.8973C184.469 14.568 184.908 14.4033 185.402 14.4033C185.896 14.4033 186.335 14.568 186.664 14.8973C186.993 15.2266 187.158 15.6657 187.158 16.1596C187.158 16.6536 186.993 17.0926 186.664 17.422C186.335 17.7513 185.896 17.9159 185.402 17.9159C184.908 17.9159 184.469 17.7513 184.139 17.422C183.81 17.0926 183.646 16.6536 183.646 16.1596ZM183.755 20.0015H186.939V33.3384H183.755V20.0015Z" fill="#6939DB"/>
<path d="M189.407 26.6426C189.407 25.5998 189.572 24.6667 189.901 23.8435C190.23 23.0202 190.67 22.3067 191.273 21.703C191.877 21.0993 192.591 20.6602 193.469 20.3309C194.347 20.0016 195.28 19.8369 196.268 19.8369C197.256 19.8369 198.244 20.0016 199.067 20.3309C199.89 20.6602 200.658 21.0993 201.262 21.703C201.866 22.3067 202.305 23.0202 202.634 23.8435C202.964 24.6667 203.128 25.5998 203.128 26.6426C203.128 27.6854 202.964 28.6184 202.634 29.4416C202.305 30.3198 201.866 31.0333 201.262 31.637C200.658 32.2407 199.945 32.6798 199.067 33.0091C198.244 33.3384 197.311 33.5031 196.268 33.5031C195.225 33.5031 194.292 33.3384 193.469 33.0091C192.591 32.6798 191.877 32.2407 191.273 31.637C190.67 31.0333 190.23 30.3198 189.901 29.4416C189.572 28.5635 189.407 27.6305 189.407 26.6426ZM192.591 26.6974C192.591 27.9598 192.92 28.8928 193.578 29.6063C194.237 30.3198 195.115 30.6491 196.268 30.6491C197.42 30.6491 198.298 30.3198 198.957 29.6063C199.616 28.8928 199.945 27.9598 199.945 26.6974C199.945 25.4351 199.616 24.5021 198.957 23.7886C198.298 23.0751 197.365 22.7458 196.268 22.7458C195.17 22.7458 194.237 23.0751 193.578 23.7886C192.92 24.5021 192.591 25.4351 192.591 26.6974Z" fill="#6939DB"/>
<path d="M211.855 19.7817C212.952 19.7817 213.885 19.9464 214.654 20.3306C215.422 20.7148 216.081 21.1538 216.575 21.7027C217.069 22.2515 217.453 22.8553 217.672 23.5139C217.892 24.1725 218.002 24.7762 218.002 25.3799V33.3381H214.818V25.4897C214.818 24.9957 214.764 24.6115 214.599 24.2822C214.434 23.9529 214.215 23.6785 213.94 23.4041C213.666 23.1846 213.337 23.0199 213.007 22.9101C212.678 22.8004 212.294 22.7455 211.91 22.7455C211.525 22.7455 211.141 22.7455 210.812 22.9101C210.483 23.0199 210.153 23.1846 209.879 23.4041C209.604 23.6236 209.385 23.8981 209.22 24.2822C209.056 24.6115 209.001 25.0506 209.001 25.4897V33.3381H205.817V25.3799C205.817 24.7762 205.927 24.1725 206.147 23.5139C206.366 22.8553 206.75 22.2515 207.244 21.7027C207.738 21.1538 208.397 20.6599 209.165 20.3306C209.934 19.9464 210.867 19.7817 211.964 19.7817H211.855Z" fill="#6939DB"/>
<path d="M5.04934 37.4545C4.28097 40.034 3.73212 41.8452 3.67724 42.0099C2.79909 44.2601 1.31722 46.1262 0 47.7727C7.6289 47.7727 12.4038 47.8825 14.5992 45.3578C14.8736 45.0285 15.148 44.6443 15.3127 44.2052C15.4773 43.821 15.6969 43.382 15.8615 42.9978C19.5937 34.1065 21.9537 18.8487 25.9602 11.7687C27.0579 9.84774 28.2105 8.53052 29.5826 8.09145C28.2654 7.98168 26.7286 7.98168 24.9174 7.98168H19.4839C13.5564 7.98168 12.3489 12.5919 12.1843 13.0859C12.1843 13.1408 8.50705 25.4897 5.98238 34.0517C5.70795 33.6126 5.48842 33.1186 5.26888 32.6796C5.15911 32.46 5.04935 32.2405 4.93958 31.9661C2.85398 27.0814 2.74421 21.7027 4.55539 16.6534C5.5433 14.0189 6.97029 11.604 8.89124 9.57332C10.8122 7.48772 13.0624 5.89608 15.642 4.74351C18.3862 3.53606 21.2402 2.87745 24.2039 2.87745C28.1556 2.87745 32.0524 4.03002 35.4552 6.11562C38.9129 8.31098 41.6022 11.4394 43.3036 15.1715C44.2915 17.3669 44.8953 19.672 45.0599 22.0869C45.3343 25.4897 44.7855 28.8377 43.4683 31.9112C43.578 32.2405 43.6878 32.5149 43.8525 32.8442C44.2367 33.7772 44.566 34.4907 44.8953 35.0945C47.0357 31.1977 48.0785 26.6423 47.7492 21.8674C47.5297 19.1781 46.8711 16.5436 45.7185 14.0738C40.5045 2.21884 26.5091 -3.10493 14.5992 2.27372C8.83635 4.90816 4.28097 9.73797 2.14048 15.7203C-0.329305 22.5809 0.548842 29.8256 3.95166 35.6982C4.28097 36.3019 4.66516 36.8508 5.04934 37.4545Z" fill="url(#paint0_linear_2047_12269)"/>
<path d="M17.5092 43.6018C17.4543 43.7664 17.3994 43.8762 17.2897 44.0408C17.0701 44.4799 16.8506 44.8092 16.5762 45.1385C16.5762 45.0287 16.6859 44.9739 16.7408 44.8641C16.9604 44.425 17.125 43.9859 17.3446 43.5469C17.3994 43.5469 17.4543 43.5469 17.5092 43.6018Z" fill="url(#paint1_linear_2047_12269)"/>
<path d="M46.7611 38.8268H42.535C42.096 39.2659 41.602 39.8696 41.108 40.3636C37.2662 44.2604 32.0522 46.8399 26.1795 47.3339C22.7767 47.6083 19.4288 47.1144 16.2455 45.9618H16.1357C16.3004 45.7422 16.465 45.4678 16.6297 45.1385C16.6297 45.0288 16.7395 44.9739 16.7944 44.8641C17.0139 44.425 17.1785 43.986 17.3981 43.5469C17.453 43.5469 17.5078 43.5469 17.5627 43.6018C19.7581 44.3701 22.0084 44.7543 24.3684 44.7543C26.7284 44.7543 25.4661 44.7543 26.0149 44.6994C30.1861 44.3701 34.0829 42.8334 37.2662 40.3087C37.8699 39.8696 38.4187 39.3208 38.9127 38.8817H38.6383C34.028 38.8817 33.095 35.2594 32.9852 34.9301C32.9852 34.8752 28.32 19.1783 26.7833 14.0741C27.1675 13.1959 27.5517 12.3727 27.9907 11.6043C28.8689 10.0126 29.8568 8.80519 30.9545 8.25635C33.2047 8.53077 34.6317 9.24426 35.3452 10.781C38.1992 16.7634 39.9555 27.5756 42.6448 33.9421C43.0839 35.0398 43.5778 35.9729 44.0718 36.7412C44.8402 37.9487 45.7183 38.772 46.7062 38.9366L46.7611 38.8268Z" fill="url(#paint2_linear_2047_12269)"/>
</g>
<defs>
<linearGradient id="paint0_linear_2047_12269" x1="0" y1="23.953" x2="47.9139" y2="23.953" gradientUnits="userSpaceOnUse">
<stop stop-color="#EC1C24"/>
<stop offset="1" stop-color="#861719"/>
</linearGradient>
<linearGradient id="paint1_linear_2047_12269" x1="16.9055" y1="43.3822" x2="17.1799" y2="45.0836" gradientUnits="userSpaceOnUse">
<stop stop-color="#627B84"/>
<stop offset="0.9" stop-color="#050509"/>
</linearGradient>
<linearGradient id="paint2_linear_2047_12269" x1="16.1357" y1="27.7951" x2="46.7611" y2="27.7951" gradientUnits="userSpaceOnUse">
<stop stop-color="#8E1D5B"/>
<stop offset="1" stop-color="#111A40"/>
</linearGradient>
<clipPath id="clip0_2047_12269">
<rect width="218" height="47.6503" fill="white" transform="translate(0 0.174805)"/>
</clipPath>
</defs>
</svg>
